Patient4_TMGait_0pt3_03_left_01_EMG.mot
version=1
nRows=40
nColumns=33
inDegrees=no
endheader
time	1LAddLong	2LGlutMax	3LGlutMed	4LIliopsoas	5LSemiMemb	6LBicFemLong	7LRecFem	8LVastMed	9LVastLat	10LGasMed	11LTibAnt	12lTibPost	13LPeroneusLong	14LSol	15LExtDigLong	16LFlexDigLong	17RAddLong	18RGlutMax	19RGlutMed	20RIliopsoas	21RSemiMemb	22RBicFemLong	23RRecFem	24RVastMed	25RVastLat	26RGasMed	27RTibAnt	28RTibPost	29RPeroneusLong	30RSol	31RExtDigLong	32RFlexDigLong
2.15	0.013733	-0.036011	0.10757	0.001373	0.11719	0.16144	-0.010834	0.011749	-0.086365	-0.063629	0.27237	0.000153	-0.10986	0.091248	-0.63446	0.002594	-0.016022	0.016174	-0.081787	-0.063934	0.010376	-0.03067	-0.003967	0.093231	0.054932	0.032501	0.011597	-0.007172	0.27329	0.046539	-0.006866	-0.010834
2.151	0.012512	-0.015106	0.066223	0.005493	0.04425	0.14282	-0.076752	0.016022	-0.070038	-0.070496	0.13046	0.007629	-0.061188	0.037384	-0.42038	-0.002899	-0.011292	0.014648	0.059357	-0.11231	-0.019531	-0.039978	0.033722	0.021667	0.0177	0.016479	0.010681	-0.003662	0.1358	-0.002899	-0.003815	-0.009308
2.152	0.001831	-0.00885	0.04837	-0.002899	0.030212	0.088043	-0.050201	0.007782	-0.026245	-0.096436	-0.32455	0.004425	0.055695	0.017853	0.18601	0.012054	-0.005493	0.014038	0.082703	-0.15625	-0.007935	-0.045471	-0.007629	-0.05249	0.036469	0.046844	0.027313	-0.004272	-0.094299	-0.003204	-0.002289	-0.006104
2.153	0.003204	-0.019073	0.1181	-0.003204	-0.017395	0.024872	-0.034943	0.00824	0.022736	-0.084229	-0.12909	0.008698	0.15182	-0.077209	0.14954	-0.002899	0.011292	0.012817	-0.045624	-0.19241	-0.023651	-0.022888	-0.051727	-0.098267	0.1532	0.029602	0.037842	-0.01236	-0.2298	0.062103	-0.004578	-0.005493
2.154	0.007324	-0.042877	0.021515	0.006866	-0.004883	-0.036469	-0.043793	0.005493	0.092773	-0.11734	-0.10025	0.000458	-0.029449	-0.089569	0.02594	0.002594	0.048065	-0.034943	-0.019379	-0.21225	-0.024719	0.003967	-0.19699	-0.11398	0.13855	0.01236	0.034485	-0.009918	-0.19653	0.06897	-0.003967	-0.010681
2.155	-0.011139	-0.016479	0.057983	0.001373	0.032349	0.007477	0.007019	-0.005035	0.11566	-0.15732	-0.047913	0.003967	-0.040131	-0.11902	-0.16129	0.00351	0.076141	0.007477	0.20767	-0.20508	-0.011139	-0.00885	-0.12283	-0.13046	0.14954	0.014038	0.015564	-0.012665	0.052185	0.039215	-0.005493	-0.014191
2.156	-0.012512	-0.053558	0.06424	0.01358	0.019836	0.040283	0.075684	-0.001373	0.15396	-0.15564	0.072327	0.008545	-0.041199	-0.2243	-0.15167	0.005035	0.078125	0.026093	0.20706	-0.32898	0.045319	-0.024261	-0.025177	-0.20172	0.089722	0.021515	-0.000916	-0.011444	0.31998	0.032501	-0.003815	-0.016632
2.157	0.014191	-0.027466	0.02243	0.003204	0.00412	-0.001068	0.11292	-0.00061	0.040436	-0.068054	-0.007172	0.007629	-0.001984	-0.24582	-0.035706	0.006866	0.058441	0.010071	0.15167	-0.13306	0.010223	0.003815	-0.007477	-0.22903	0.033417	0.018005	0.017548	-0.018005	0.059052	0.083923	-0.003967	-0.011444
2.158	0.006256	-0.031433	0.016174	-0.005951	-0.050964	0.11505	0.11108	-0.00946	-0.082245	-0.042725	-0.078735	0.007935	-0.13275	-0.16312	0.1294	-0.001678	0.057983	-0.023346	0.18402	0.074615	0.023041	-0.054932	0.072174	-0.21912	0.02121	-0.013733	0.031128	-0.020905	-0.11658	0.12253	0.001678	-0.00946
2.159	0.03006	-0.012665	0.10071	-0.005646	-0.057831	0.1445	0.093994	-0.002594	-0.080261	0.007019	-0.097351	0.009766	-0.039825	-0.11551	0.067444	-0.002747	0.011749	-0.044861	0.25009	0.1651	-0.10864	-0.050507	0.016479	-0.16373	0.007477	0.010376	0.023499	-0.026398	-0.21942	0.10437	-0.002289	-0.007935
2.16	0.014343	-0.054169	0.062256	-0.003662	0.010071	0.13412	0.056305	-0.00351	-0.046539	0.12817	-0.074615	0.00351	0.18066	-0.055084	0.039825	-0.007172	-0.068359	-0.013428	0.22492	0.30792	-0.32547	-0.022888	0.067749	-0.1506	-0.011902	-0.040588	0.034027	-0.034027	-0.30762	0.10529	-0.001678	-0.009308
2.161	0.006256	-0.03891	0.024719	0.002289	0.12192	0.04715	0.028534	-0.000458	-0.027008	0.15823	-0.054016	0.007935	0.19531	-0.007019	0.10864	0.005493	-0.090027	0.018463	0.20523	0.40283	-0.30182	0.001068	0.084534	-0.13382	-0.051422	-0.063782	0.051575	-0.009613	-0.31036	0.003815	-0.00412	-0.006409
2.162	0.012054	-0.046539	0.018158	0	0.039215	0.03418	0.02533	0.005188	-0.001984	0.088806	-0.052338	0.00412	0.13168	0.016479	0.15564	0.005798	-0.086823	-0.003967	0.1564	0.31174	-0.18372	0.054626	0.11429	-0.10651	-0.098267	0.023499	0.010071	0.096893	0.3035	-0.1294	-0.002441	-0.00824
2.163	0.006866	-0.02594	0.008392	0.019684	-0.069885	-0.016785	0.057983	0.008392	-0.013885	0.017395	-0.040131	0.007935	0.078278	0.03067	0.12543	0.01236	-0.067596	0.042267	0.068207	0.24002	0.13275	0.059204	0.14816	-0.061188	-0.054779	0.025482	0.027313	0.008087	0.013733	-0.088501	-0.003357	-0.012665
2.164	0.001678	-0.009766	0.1091	0.011292	-0.015106	-0.12543	0.071106	0.000916	-0.017395	0.070648	-0.038147	0.002899	-0.020752	0.041809	0.030823	-0.002899	-0.041351	0.000305	0.18494	0.14954	0.055389	0.012054	0.19272	-0.058136	-0.016327	0.010986	0.010071	-0.017395	0.20142	-0.000458	0.001678	-0.00946
2.165	0.016022	-0.053711	0.036469	0.002441	0.04837	-0.12375	0.057373	0.009155	-0.016022	-0.062561	-0.014954	0.004272	0.007477	0.019226	-0.039063	-0.00351	-0.04776	-0.048828	0.31525	0.045166	0.044861	-0.069733	-0.001526	-0.082855	0.008087	0.000153	0.012054	-0.021362	0.61996	0.056915	-0.006256	-0.011902
2.166	0.03006	-0.078278	0.016785	0.001373	0.064392	-0.049438	0.015564	-0.01358	-0.009918	-0.047302	0.029297	0.00824	0.023956	0.020905	-0.03006	-0.006561	-0.043488	-0.032349	0.29007	-0.059052	0.059814	-0.059662	-0.13672	0.11353	-0.03006	0.006866	-0.006714	-0.018158	0.35309	0.14099	-0.007477	-0.004883
2.167	0.041046	-0.039215	0.063477	-0.001984	0.041809	-0.027008	0.003815	-0.010376	0.021057	-0.035095	0.008087	0.010071	0.009766	0.005341	0	0.006104	-0.033875	0.009155	0.13321	-0.095673	0.037079	-0.040283	-0.15305	0.34607	-0.031738	-0.00412	-0.005493	-0.014191	0.24948	0.10269	-0.007935	-0.017395
2.168	0.023499	-0.03067	0.037079	-0.00946	0.026398	-0.030823	0.023651	0.00061	0.009766	-0.027618	0.010223	0.006256	0.037079	-0.037079	-0.038147	0.010681	-0.012207	0.031433	0.10635	-0.10452	0.014648	-0.040894	-0.10742	0.2861	-0.008087	-0.023804	0.009155	-0.019989	0.18356	0.026245	-0.001831	-0.014954
2.169	0.017853	-0.030212	0.021362	0.002594	0.004425	-0.029907	0.024719	0.007477	0.005493	-0.032349	0.004883	0.013123	0.069275	-0.007477	-0.001068	-0.006561	0.003204	0.05188	0.041504	-0.086975	0.010529	-0.055084	-0.093842	0.13565	0.058441	-0.030518	-0.013733	-0.032959	-0.10788	0.059967	-0.00061	-0.007477
2.17	0.010529	-0.039825	-0.018158	0.005188	-0.040283	0.012054	0.001984	0.007935	-0.003815	-0.034485	0.027466	0.010071	0.055542	-0.005493	0.011444	0.012054	0.005951	0.077209	-0.003815	-0.080566	-0.005798	-0.063782	-0.1915	0.056458	0.13306	0.004425	-0.040283	-0.036774	-0.11643	0.093536	-0.001373	-0.010376
2.171	0.001984	-0.075684	-0.12161	0.011292	-0.062561	-0.001678	0.037231	0.005341	-0.018311	-0.042114	0.012207	0.006104	0.068054	-0.031128	0.007324	-0.003204	0.004578	0.07019	-0.15945	-0.02594	-0.009308	-0.058289	-0.26764	0.070496	0.14587	0.010376	-0.01709	-0.031738	0.034943	-0.010376	0.000153	-0.008698
2.172	0.011902	-0.067596	-0.015411	-0.033569	-0.081482	0.037842	0.063019	0.002594	-0.026703	-0.045929	0.027313	0.002289	0.10346	0.008392	0.025177	-0.000458	0.005646	0.04303	-0.27588	0.022278	-0.030823	-0.038757	-0.18066	-0.041046	0.073547	0.022278	-0.001221	0.088959	0.20813	-0.057831	-0.000916	-0.024109
2.173	0.005798	-0.053558	0.049133	-0.003967	0.007782	0.006714	0.081329	0.005798	-0.033722	-0.011292	0.030212	0.006409	0.098114	0.047302	0.054779	0.000305	-0.006256	0.063782	0.21408	-0.054779	-0.015259	-0.042725	-0.1915	-0.086365	0.00946	0.016632	0.013885	0.012512	0.27512	-0.030975	0.005798	-0.020599
2.174	-0.004272	-0.056	-0.016632	0.02182	0.0914	0.03006	0.074615	0.003204	-0.037079	0.004425	0.024872	0.007477	-0.004883	0.088348	0.049744	-0.00412	-0.001678	0.049438	0.17273	-0.040741	-0.016174	-0.042877	-0.061646	-0.083008	-0.013275	0.035858	0.019836	-0.012817	-0.40863	-0.02121	0.000305	-0.026093
2.175	0.007629	-0.057373	0.066681	-0.00946	0.081177	0.059052	0.037384	0.005035	-0.042877	0.049286	0.05188	0.0177	0.20966	0.099487	0.010071	-0.00061	0.00885	0.032043	0.58975	-0.079041	-0.007477	0.012054	-0.040588	-0.10208	-0.042572	0.032654	-0.005035	-0.011292	-0.15884	0.039825	0.001831	-0.019226
2.176	0.000763	-0.059357	0.023499	0.005951	0.063782	0.03891	0.055237	0.001221	-0.018921	0.04837	0.071564	0.007019	0.016937	0.053864	-0.010986	-0.002594	0.019379	0.029602	0.7161	-0.082703	0.089569	0.066376	-0.00946	-0.10727	-0.033569	0.015411	-0.008698	-0.014038	0.17868	0.067749	-0.001984	-0.014038
2.177	0.008545	-0.094604	0.016785	-0.001678	0.014954	0.020447	0.079193	0.001984	0.052795	0.019073	0.050354	0.008698	-0.15106	0.015106	-0.12344	0.004272	0.031891	-0.033875	0.36255	-0.002899	0.0737	0.030975	-0.02655	-0.098877	-0.014801	-0.013428	0.015564	-0.007477	0.20172	0.052185	0.003967	-0.015717
2.178	0.000153	-0.089569	-0.016632	0.015106	-0.026093	-0.000153	0.077209	0.008698	0.005035	-0.04837	0.019684	0.010071	-0.02243	0.053558	-0.11231	0.007172	0.065765	-0.036621	0.17624	0.007172	-0.000305	0.007172	0.018768	-0.16556	-0.022278	-0.032349	-0.004578	-0.013123	0.19104	0.053558	-0.00061	-0.002289
2.179	0.006561	-0.1149	-0.020905	0.001068	-0.016785	-0.02182	0.035553	0.008392	0.00473	-0.089722	0.031586	0.005951	-0.23605	0.12848	0.045013	-0.004425	0.073547	0.052948	0.35461	-0.020294	-0.058289	-0.044403	0.016022	-0.16525	-0.023346	-0.047607	0.016174	-0.003967	0.16861	0.036621	-0.004425	-0.007782
2.18	0.011902	-0.10544	0.032806	-0.014191	-0.017242	0.005035	0.024567	0.017853	-0.014343	-0.16495	0.005646	0.006104	-0.1915	0.11185	0.088654	-0.003357	0.067139	0.048523	0.21316	-0.010834	-0.070496	-0.045624	-0.09201	-0.16861	-0.001373	-0.010681	0.053406	-0.007782	0.13351	0.016632	-0.000916	-0.006409
2.181	-0.011444	-0.11475	0.043488	-0.00885	-0.025787	0.046844	-0.030212	0.015717	-0.025635	-0.11215	0.12558	0.003204	0.075684	0.049438	0.13351	0.010986	0.024261	0.040436	0.018311	0.008545	0.24521	-0.11108	-0.12711	-0.121	0.012665	0.042267	0.089874	-0.006866	0.020142	0.001221	0.001221	-0.011597
2.182	0.005493	-0.1004	0.007324	0.003815	-0.043488	0.061798	-0.049744	0.019531	-0.010986	-0.08316	0.16037	0.005951	0.095825	0.038452	0.24445	-0.002289	-0.011139	-0.011292	-0.31937	0.015411	0.38681	-0.061188	-0.23911	0.014648	0.074768	0.098419	0.092468	-0.013123	-0.082703	0.002594	-0.000458	-0.008087
2.183	0.010834	-0.13321	-0.01709	0.003967	-0.027161	-0.004425	-0.040283	0.006409	0.004883	-0.092163	-0.0737	0.004578	0.11917	0.038605	0.79117	0.009613	-0.055695	0.017548	-0.27725	-0.040894	0.28076	0.074921	-0.2005	0.065918	0.10712	0.041809	0.022278	-0.010681	0.21759	-0.098419	-0.001526	-0.009155
2.184	0.012054	-0.10513	-0.013885	-0.004272	0.027313	-0.024719	0.009155	-0.008392	0.011292	-0.099487	-0.17303	0.007629	0.019684	0.018311	0.25253	-0.001221	-0.081482	0.008087	-0.29358	-0.049896	-0.09079	0.23499	-0.12833	0.008392	0.050507	-0.001678	-0.05188	-0.011444	-0.30655	-0.11047	0.001678	-0.001068
2.185	0.009308	-0.078278	0.011749	0.004425	0.018158	-0.040588	-0.031281	-0.006256	0.028534	-0.12268	-0.11993	0.005341	-0.029297	0.067902	-0.79849	0.007477	-0.045471	-0.019531	-0.14374	-0.084381	-0.16129	0.17014	0.012665	-0.046387	-0.014648	-0.026093	-0.043182	-0.012665	-0.91965	-0.038757	0.003052	-0.002136
2.186	0.000153	-0.081482	0.026703	-0.00412	0.00824	-0.13138	-0.00061	0.002747	0.027313	-0.074921	0.08728	0.009308	0.008392	0.037384	-0.34149	0.003204	-0.008545	-0.007477	0.12924	-0.071564	-0.017242	0.081177	-0.027161	0.007324	-0.014954	-0.037537	-0.013275	-0.019836	-1.0327	-0.020752	0.000305	-0.014954
2.187	0.010071	-0.081024	-0.02121	0.003357	0.014496	-0.054626	0.02655	0.010223	0.032501	-0.079041	0.16235	0.011292	0.067291	0.048676	-0.21729	-0.01297	0.001373	-0.013428	-0.073853	-0.045624	0.13062	0.15091	-0.10696	0.03418	-0.021057	-0.022583	0.015564	-0.018921	-0.61829	0.066223	0	-0.01709
2.188	0.005341	-0.087738	-0.079651	0.004425	0.027313	0.033875	0.041962	-0.005341	0.047913	-0.093384	0.22095	0.006561	0.017548	0.12421	-0.28336	0.02182	0.00473	-0.077362	0.01358	-0.075073	0.22339	0.14969	-0.10147	0.040588	-0.045776	-0.004425	0.001526	-0.027618	-0.40512	0.10864	0.002136	-0.010071
2.189	-0.006866	-0.083313	-0.076599	-0.002594	0.01709	0.051727	0.031891	-0.006866	0.027161	-0.097656	0.098724	0.013428	0.090179	0.12039	-0.21774	0.007935	0.004578	-0.087585	0.38116	-0.12421	0.11963	0.11017	-0.028076	0.045471	0.00885	0.002441	-0.056	-0.000305	-0.84442	-0.009613	-0.002441	-0.01358
